<?xml version="1.0" encoding="utf-8"?>
<!-- Generator: Adobe Illustrator 22.1.0, SVG Export Plug-In . SVG Version: 6.00 Build 0)  -->
<svg version="1.1" id="Capa_1" xmlns="http://www.w3.org/2000/svg" xmlns:xlink="http://www.w3.org/1999/xlink" x="0px" y="0px"
	 viewBox="0 0 50 50" style="enable-background:new 0 0 50 50;" xml:space="preserve">
<style type="text/css">
	.st0{fill:#FFFFFF;}
</style>
<g>
	<g>
		<path class="st0" d="M18.8,12.3c0,0.3-0.5,0.3-0.5,0c0-0.3-0.7-1.7-0.8-1.2c-0.8,4.3-1.6,8.1-2.3,11.2c2.9-0.9,6-1.8,8.8-3
			c1-3.6,2-6.9,2.5-8.9c0.2-0.8,1.1-0.2,1,0.1c-0.6,1.9-1.4,4.9-2.4,8.3c0.6-0.2,1.1-0.5,1.6-0.7c0.9-0.5,0.2,0.7,0.1,0.9
			c-0.1,0.2-0.3,0.4-0.5,0.7c-0.2,0.2-0.6,0.1-0.4-0.2c0.2-0.3,0.3-0.5,0.5-0.7c0.1-0.1,0.1-0.2,0.2-0.2c-0.5,0.2-1,0.5-1.5,0.7
			c-0.6,2-1.1,4.2-1.6,6.2c-0.1,0.2-2.9,13.5-1.2,11.4c0.2-0.3,0.4-0.8,0.6-1.3c0.1-0.3,0.6-0.2,0.5,0.1c-0.1,0.4-0.4,1-0.6,1.4
			c-0.2,0.3-0.6,0.7-1,0.6c-2.4,0,0.4-11,0.7-12.3c0.4-1.9,0.9-3.8,1.4-5.6c-2.9,1.1-6,2.1-8.8,3c-0.2,0.8-0.4,1.6-0.5,2.3
			c0.7-0.1,1.2-0.1,1.6-0.1c1.5-0.1,0.8,0.6,0.1,1.2c-1,0.9-1.9,1.8-2.6,2.8c-0.5,1.7-1.6,6.7-2.8,8.2c-1,1.4-1.4,0.2-1.1-1.3
			c0.2-1.4,1-3.5,2.5-5.8c0.3-1.1,0.6-2.3,0.9-3.7c0.1-0.2,0.1-0.5,0.2-0.7c-3.4,0.3-8.3,0.7-8.4,0.1c-0.1-0.3,0.5-0.6,1.9-1.1
			c0.9-0.3,2-0.6,3.3-0.9c1.2-0.3,2.5-0.7,3.9-1.1c0.8-3.4,1.6-7.5,2.5-12.2c0.1-0.5,0.9-0.3,1.1-0.1c0.5,0.5,0.8,1,1,1.6
			C18.8,12.1,18.8,12.2,18.8,12.3z M13.9,23.1c-1.3,0.4-2.6,0.7-3.7,1c-1.3,0.4-2.4,0.7-3.3,0.9c-1.1,0.3-1.5,0.5-1.5,0.5
			c0.1,0.3,4.8-0.1,8-0.4C13.6,24.5,13.8,23.8,13.9,23.1z M10.2,35.8c-0.1,0.9-0.3,2.1,0.3,0.3c0.4-1.4,1.1-3.8,1.4-4.6
			C10.9,33.2,10.4,34.7,10.2,35.8z M14,27.3c-0.1,0.2-0.1,0.4-0.1,0.6c0.6-0.7,1.3-1.4,2.1-2.1c0.6-0.5,0.6-0.6,0.2-0.5
			c-0.4,0-1,0.1-1.6,0.1C14.3,26.1,14.1,26.7,14,27.3z"/>
	</g>
	<g>
		<g>
			<path class="st0" d="M40.7,12.7c0.2,0.3,0.3,0.5,0.4,0.8c0.1,0.3,0.1,0.6,0.1,1c0,0.3-0.1,0.6-0.1,0.9c0,0.2-0.1,0.6-0.2,0.9
				c0,0.1-0.1,0.1-0.3,0.2c0,0-0.1,0-0.1-0.1c0.1-0.2,0.1-0.4,0.1-0.6c0-0.1,0.1-0.3,0.1-0.5c0-0.2,0.1-0.4,0.1-0.6
				c0-0.2,0-0.3,0-0.6c0-0.2,0-0.4-0.1-0.6c0-0.2-0.1-0.3-0.2-0.5c-0.1-0.2-0.2-0.3-0.3-0.5c-0.3-0.3-0.6-0.6-1-0.7
				c-0.4-0.1-0.8-0.2-1.2-0.2c-0.4,0-0.8,0.1-1.2,0.3c-0.4,0.1-0.8,0.3-1.1,0.6c-2.1,1.4-4,3.2-5.7,5.6c-1.5,2-2.7,4-3.6,6.2
				c-0.6,1.3-1,2.5-1.4,3.6C24.7,29,24.5,30,24.4,31c-0.1,0.8,0,1.6,0.2,2.4c0.2,0.8,0.5,1.5,1,2.1c0.5,0.7,1.1,1.1,1.9,1.4
				c0.7,0.3,1.4,0.4,2.1,0.3c0.7-0.1,1.4-0.3,2.1-0.6c0.6-0.3,1.2-0.7,1.8-1.2c0.3-0.3,0.7-0.6,1-0.9c0.4-1.8,0.6-3,0.8-3.6
				c0-0.1,0-0.2,0.1-0.5c0.1-0.3,0.1-0.6,0.2-1c0.1-0.4,0.1-0.7,0.2-1c-1.7,0.9-3.3,1.9-4.8,3c-0.1,0.1-0.2,0.1-0.3,0
				c-0.1,0-0.1,0,0-0.1c0,0,0,0,0,0c1.6-1.2,3.4-2.3,5.2-3.3c0.6-1.9,1.3-2.5,2.2-1.8c0.2,0.1,0.3,0.3,0.4,0.5
				c0.6-0.3,1.2-0.5,1.7-0.7c0.1,0,0.1,0,0.2,0c0,0,0.1,0.1,0,0.1c0,0-0.1,0.1-0.1,0.1c-0.5,0.2-1.1,0.5-1.7,0.7
				c0.3,1-0.3,2.6-1.7,4.8c-0.6,1-1.2,1.8-2,2.6c-0.6,3.1-1.2,5.6-1.7,7.3l0,0c0,0.1-0.1,0.1-0.3,0.1c-0.1,0-0.1,0-0.1-0.1
				c0,0,0-0.1,0-0.2c0,0,0,0,0-0.1c0.5-1.7,1-3.9,1.6-6.7c-0.7,0.7-1.4,1.2-2.1,1.6c-0.9,0.5-1.8,0.8-2.8,0.9
				c-1,0.1-1.9-0.1-2.7-0.5c-0.8-0.4-1.4-1-1.9-1.8c-0.5-0.8-0.7-1.6-0.8-2.5C24,31.9,24,31,24.2,30.1c0.4-2.4,1.4-5.1,3-8
				c1.4-2.6,3-4.8,5-6.7c1.1-1.1,2.2-2,3.3-2.8c1.1-0.7,2-1.1,2.9-1.1c0.3,0,0.6,0.1,0.9,0.1c0.3,0.1,0.6,0.2,0.8,0.4
				C40.3,12.2,40.5,12.4,40.7,12.7z M36.2,28.4c-0.3,1.2-0.7,3.1-1.2,5.7c0.8-1,1.6-2,2.2-3.2c0.5-1,0.8-1.8,0.9-2.5
				c0.1-0.4,0.1-0.7,0.1-1c-0.6,0.3-1.3,0.6-1.9,0.9C36.2,28.4,36.2,28.4,36.2,28.4z M37.7,26.7c-0.7-0.4-1.1,0-1.5,1.3
				c0.6-0.3,1.2-0.6,1.8-0.9C38,27,37.9,26.8,37.7,26.7z"/>
			<path class="st0" d="M32.8,42.4c-0.2,0-0.3-0.1-0.3-0.1c-0.1-0.1-0.1-0.2-0.1-0.3c0,0,0-0.1,0-0.3l0,0c0,0,0-0.1,0.1-0.1
				c0.4-1.4,0.9-3.3,1.3-5.5c-0.5,0.4-0.9,0.7-1.4,1c-0.9,0.5-1.9,0.8-2.9,0.9c-1,0.1-2-0.1-2.9-0.6c-0.9-0.4-1.5-1.1-2-1.9
				c-0.5-0.8-0.8-1.7-0.9-2.6c-0.1-0.9-0.1-1.8,0.1-2.8c0.4-2.4,1.4-5.2,3-8.2c1.4-2.6,3.1-4.9,5-6.8c1.1-1.1,2.2-2.1,3.4-2.8
				c1.1-0.8,2.2-1.1,3.1-1.1c0.3,0,0.7,0.1,1,0.2c0.3,0.1,0.6,0.2,0.9,0.4c0.3,0.2,0.5,0.5,0.7,0.8l0,0c0.2,0.3,0.3,0.6,0.4,0.9
				c0.1,0.3,0.1,0.7,0.1,1.1c0,0.4-0.1,0.7-0.1,0.9c0,0.3-0.1,0.6-0.2,1c0,0.1-0.2,0.4-0.6,0.4l-0.1,0l-0.1,0
				c-0.1,0-0.2-0.1-0.3-0.2L40,16.4l0-0.1c0.1-0.2,0.1-0.4,0.1-0.5c0-0.1,0.1-0.3,0.1-0.5c0-0.2,0.1-0.4,0.1-0.5c0-0.1,0-0.3,0-0.5
				c0-0.2,0-0.3-0.1-0.5c0-0.1-0.1-0.3-0.2-0.4c-0.1-0.1-0.2-0.3-0.3-0.4c-0.2-0.3-0.5-0.5-0.8-0.6c-0.3-0.1-0.7-0.2-1-0.1
				c-0.4,0-0.7,0.1-1.1,0.2c-0.4,0.1-0.7,0.3-1,0.5c-2,1.4-3.9,3.2-5.7,5.5c-1.5,1.9-2.7,4-3.6,6.2c-0.6,1.3-1,2.5-1.3,3.5
				c-0.3,1-0.5,2.1-0.6,3.1c-0.1,0.8,0,1.6,0.2,2.3c0.2,0.7,0.5,1.4,1,2c0.5,0.6,1,1,1.7,1.3c0.6,0.2,1.3,0.3,2,0.3
				c0.7-0.1,1.3-0.2,1.9-0.5c0.6-0.3,1.2-0.7,1.8-1.2c0.3-0.3,0.6-0.5,0.9-0.8c0.4-1.8,0.6-3,0.7-3.5c0-0.1,0-0.2,0.1-0.5
				c0.1-0.3,0.1-0.6,0.2-1c0-0.1,0-0.2,0.1-0.2c-1.4,0.8-2.8,1.7-4.1,2.6C31,32,30.8,32,30.6,32c-0.2,0-0.3-0.2-0.3-0.3
				c0-0.1-0.1-0.2,0.1-0.4l0,0l0.1,0l0,0c1.6-1.2,3.3-2.2,5.1-3.2c0.4-1.3,0.9-2,1.5-2.1c0.4-0.1,0.8,0,1.3,0.3
				c0.1,0.1,0.2,0.2,0.3,0.3c0.5-0.2,1-0.4,1.4-0.6c0.2-0.1,0.3-0.1,0.5,0c0.2,0.1,0.3,0.3,0.2,0.5c0,0.1-0.1,0.3-0.4,0.3
				c-0.4,0.2-0.9,0.4-1.4,0.6c0.1,1.1-0.5,2.7-1.8,4.8c-0.6,1-1.2,1.8-1.9,2.6c-0.6,3-1.2,5.5-1.7,7.2l0,0.1l0,0.1
				C33.4,42.2,33.2,42.4,32.8,42.4C32.9,42.4,32.8,42.4,32.8,42.4z M33.1,42.1C33.1,42.1,33.1,42.1,33.1,42.1
				C33.1,42.1,33.1,42.1,33.1,42.1z M36.5,28.5c-0.2,1-0.5,2.4-0.9,4.2c0.4-0.6,0.9-1.3,1.2-2c0.5-1,0.8-1.8,0.9-2.5
				c0-0.1,0.1-0.3,0.1-0.4C37.4,28.1,36.9,28.3,36.5,28.5z M30.7,31.3C30.7,31.3,30.7,31.3,30.7,31.3C30.7,31.3,30.7,31.3,30.7,31.3
				z M37.3,26.9C37.2,26.9,37.2,26.9,37.3,26.9c-0.1,0-0.3,0.1-0.4,0.5c0.2-0.1,0.5-0.2,0.7-0.3c0,0,0,0,0,0
				C37.4,26.9,37.3,26.9,37.3,26.9z"/>
		</g>
	</g>
	<path class="st0" d="M25,50C11.2,50,0,38.8,0,25S11.2,0,25,0s25,11.2,25,25S38.8,50,25,50z M25,1.2C11.9,1.2,1.2,11.9,1.2,25
		c0,13.1,10.7,23.8,23.8,23.8c13.1,0,23.8-10.7,23.8-23.8C48.8,11.9,38.1,1.2,25,1.2z"/>
</g>
</svg>
